<svg width="512" height="512" viewBox="0 0 512 512" fill="none" xmlns="http://www.w3.org/2000/svg">
  <rect width="512" height="512" rx="64" fill="#3b82f6"/>
  <g transform="translate(128, 80) scale(10.67)" stroke="white" stroke-width="2" stroke-linecap="round" stroke-linejoin="round" fill="none">
    <path d="M12 5a3 3 0 1 1 3 3m-3-3a3 3 0 1 0-3 3m3-3v1M9 8a3 3 0 1 0 3 3M9 8h1m5 0a3 3 0 1 1-3 3m3-3h-1m-2 3v-1" />
    <circle cx="12" cy="8" r="2" />
    <path d="M12 10v12" />
    <path d="M12 22c4.2 0 7-1.667 7-5-4.2 0-7 1.667-7 5Z" />
    <path d="M12 22c-4.2 0-7-1.667-7-5 4.2 0 7 1.667 7 5Z" />
  </g>
</svg>
